<svg xmlns="http://www.w3.org/2000/svg" height="800" width="1200" xml:space="preserve" y="0" x="0" id="Layer_1" version="1.1" viewBox="-80.385 -83 696.67 498"><style id="style9588" type="text/css">.st0{fill:#222}</style><g transform="translate(-11.6 -15)" id="Page-1"><g id="gv"><path d="M177.8 347C86 347 11.6 272.7 11.6 181S86 15 177.8 15c12 0 23.6 1.3 34.9 3.7l37.1 73.7c-19.3-12.9-42.3-20.9-67.5-21.7-1.5-.1-3.1-.1-4.6-.1-61.1.1-110.5 49.8-110.5 110.7 0 61 49.5 110.8 110.7 110.8 51.7 0 95-37.9 107.2-82.5h-118v-57.4h113.4l48.7 97.1C302.9 306.7 245 347 177.8 347" class="st0" id="Fill-1"/><path d="M382.9 346.1l-32.3-64 132-263.6h64.9L382.9 346.1" class="st0" id="Fill-2"/></g></g></svg>